<svg width="120" height="48" viewBox="0 0 120 48" xmlns="http://www.w3.org/2000/svg">
  <rect width="120" height="48" rx="8" fill="#000"/>
  <g transform="translate(18, 14)">
    <path d="M15.7216 11.8971C16.5532 10.8432 17.101 9.41927 16.9466 8c-1.19945.0484858-2.65065.798279-3.50782 1.80692-.770508.887269-1.4451 2.30357-1.26401 3.66102 1.33707.103654 2.70206-.67879 3.52663-1.76998zM16.9361 13.2847c-1.95226-.114017-3.60969 1.10845-4.53709 1.10845-.927506 0-2.36151-1.04728-3.88077-1.01875-2.00038.0272863-3.84339.163106-5.16731 2.34095C1.5017 18.9337.653034 23.2885 2.74824 29.5869c1.01874 3.0594 2.2577 6.4729 3.87018 6.4155 1.55335-.0576509 2.13825-1.0472 4.01489-1.0472 1.87663 0 2.40355 1.0472 3.89872 1.0197 1.61049-.0272863 2.73062-3.1544 3.74539-6.2145.423227-1.2616.748821-2.4162 1.02401-3.4643-1.09352-.470633-3.81311-2.0292-3.81311-5.74176 0-3.26323 2.28919-4.84164 2.6577-5.13747-.022718-.0545735-.655045-.189822-1.13051-.295288-.544435-.120588-1.16309-.183752-1.84814-.183752z" fill="#FFF"/>
    <path d="M26.4979 5.60215V23.1974h3.52661v-6.018h4.91773c4.48532 0 7.62891-3.08217 7.62891-5.62737 0-2.5452-3.12477-5.54884-7.57184-5.54884H26.4979zm3.52661 2.88395h4.08415c3.08739 0 4.84298 1.31105 4.84298 2.68422s-1.75559 2.70291-4.86172 2.70291h-4.06541V8.48611zM44.3496 19.8136c0 2.15125 1.84815 3.4807 5.11024 3.6581l3.48922.189821v1.04204c0 1.21724-.809253 1.88917-2.18507 1.88917-1.14933 0-1.95751-.485773-2.18507-1.25462h-3.24161c.207936 2.20842 2.43092 3.79188 5.48902 3.79188 3.3191 0 5.48902-1.75015 5.48902-4.51322v-9.1877h-3.18452v1.18871h-.0942826c-.848646-1.0361-2.01465-1.57204-3.41442-1.57204-3.00203 0-5.31399 2.09409-5.31399 4.7845zm3.69361.04737c0-1.02335.831874-1.65586 2.16633-1.65586 1.31583 0 2.37501.670454 2.37501 1.73961v.971528l-2.26072.151451c-1.29708.0848647-2.28062.561207-2.28062 1.40229 0 .84339.962072 1.36489 2.01465 1.36489 1.31583 0 2.37501-.687226 2.63759-1.66057.0188217-.06951.02826-.14374.02826-.2192v-1.47178c-.235418-.973528-.906997-1.73961-2.08152-1.73961-.831875 0-1.40054.444163-1.40054.810838 0 .0235418.00471.0494577.00942.0730003l-.208934-.0212781zM58.0821 30.7543l1.11196-3.24161h3.71236l-5.73102-16.1108h-3.71236l5.39478 14.529L55.5588 32.907c-.301574.738993-.669453 1.0397-1.38181 1.0397-.188233 0-.547488-.0188233-1.01874-.0565095v2.71233c.452281.0565095.904562.0848647 1.43888.0848647 1.69865 0 3.14737-.54749 3.88077-2.73101l6.6396-18.5628h-3.67497l-2.90389 8.26227h-.0565095l-2.86652-8.26227H58.3887c.0283552.130126.0565095.260252.0659182.407957z" fill="#FFF"/>
  </g>
</svg>