<svg width="100" height="48" viewBox="0 0 100 48" xmlns="http://www.w3.org/2000/svg">
  <rect width="100" height="48" rx="8" fill="#FFF" stroke="#DADCE0" stroke-width="1"/>
  <g transform="translate(16, 10)">
    <path d="M26.58 14.48c0-1.074-.095-2.098-.27-3.07H14v5.794h7.278c-.314 1.686-1.267 3.114-2.698 4.072v3.385h4.373c2.557-2.354 4.027-5.822 4.027-10.18z" fill="#4285F4"/>
    <path d="M14 28c3.653 0 6.716-1.212 8.954-3.282l-4.373-3.385c-1.212.811-2.76 1.291-4.58 1.291-3.526 0-6.516-2.383-7.578-5.589H1.879v3.494C3.72 24.176 8.45 28 14 28z" fill="#34A853"/>
    <path d="M6.422 17.035A7.939 7.939 0 016 14c0-.925.16-1.823.422-2.665V7.841H1.879A13.97 13.97 0 000 14c0 2.198.527 4.275 1.53 6.159l4.892-3.124z" fill="#FBBC04"/>
    <path d="M14 5.376c1.989 0 3.771.684 5.178 2.028l3.884-3.884C20.71 1.34 17.65 0 14 0 8.45 0 3.72 3.824 1.879 9.47l4.543 3.495c1.062-3.206 4.052-5.589 7.578-5.589z" fill="#EA4335"/>
  </g>
  <text x="48" y="30" font-family="Product Sans, Arial, sans-serif" font-size="18" font-weight="500" fill="#5F6368">Pay</text>
</svg>